<?xml version="1.0" standalone="no"?>
<!DOCTYPE svg PUBLIC "-//W3C//DTD SVG 1.1//EN" "http://www.w3.org/Graphics/SVG/1.1/DTD/svg11.dtd">
<svg width="100%" height="100%" viewBox="0 0 500 120" version="1.1" xmlns="http://www.w3.org/2000/svg" xmlns:xlink="http://www.w3.org/1999/xlink" xml:space="preserve" style="fill-rule:evenodd;clip-rule:evenodd;stroke-linejoin:round;stroke-miterlimit:1.41421;">
    <g transform="matrix(13.2308,1.57772e-30,7.88861e-31,13.2308,-977.116,-959.79)">
        <g id="Layer1">
            <g>
                <path d="M74.356,80.654C74.788,80.942 75.64,81.182 76.42,81.182C78.328,81.182 79.24,80.09 79.24,78.854C79.24,77.666 78.556,77.018 77.188,76.478C76.072,76.046 75.58,75.674 75.58,74.93C75.58,74.378 76,73.718 77.104,73.718C77.836,73.718 78.376,73.946 78.628,74.102L78.916,73.238C78.568,73.046 77.956,72.854 77.14,72.854C75.568,72.854 74.524,73.79 74.524,75.05C74.524,76.178 75.34,76.874 76.66,77.33C77.752,77.738 78.184,78.182 78.184,78.938C78.184,79.754 77.56,80.306 76.492,80.306C75.772,80.306 75.1,80.078 74.632,79.79L74.356,80.654Z" style="fill:rgb(18,105,140);fill-rule:nonzero;"/>
                <path d="M83.848,81.194C85.9,81.194 87.592,79.706 87.592,76.934C87.592,74.534 86.164,72.842 83.944,72.842C81.784,72.842 80.2,74.522 80.2,77.09C80.2,79.538 81.688,81.194 83.836,81.194L83.848,81.194ZM83.884,80.342C82.24,80.342 81.304,78.77 81.304,77.066C81.304,75.314 82.168,73.694 83.908,73.694C85.648,73.694 86.488,75.374 86.488,76.982C86.488,78.818 85.552,80.342 83.896,80.342L83.884,80.342Z" style="fill:rgb(202,161,50);fill-rule:nonzero;"/>
                <path d="M88.936,72.974L88.936,77.738C88.936,80.258 90.184,81.194 91.84,81.194C93.592,81.194 94.9,80.186 94.9,77.702L94.9,72.974L93.844,72.974L93.844,77.774C93.844,79.55 93.064,80.342 91.876,80.342C90.796,80.342 89.992,79.574 89.992,77.774L89.992,72.974L88.936,72.974Z" style="fill:rgb(149,196,62);fill-rule:nonzero;"/>
                <path d="M97.696,81.062L97.696,77.606C97.696,76.262 97.684,75.29 97.624,74.27L97.66,74.258C98.056,75.134 98.596,76.058 99.16,76.958L101.728,81.062L102.784,81.062L102.784,72.974L101.8,72.974L101.8,76.37C101.8,77.618 101.824,78.602 101.92,79.682L101.884,79.694C101.512,78.866 101.032,78.014 100.444,77.066L97.864,72.974L96.712,72.974L96.712,81.062L97.696,81.062Z" style="fill:rgb(110,147,88);fill-rule:nonzero;"/>
                <path d="M104.596,81.038C105.136,81.11 105.748,81.134 106.504,81.134C108.076,81.134 109.324,80.726 110.092,79.97C110.836,79.226 111.256,78.146 111.256,76.826C111.256,75.518 110.836,74.582 110.104,73.922C109.396,73.262 108.328,72.914 106.828,72.914C106,72.914 105.244,72.986 104.596,73.082L104.596,81.038ZM105.652,73.85C105.928,73.79 106.336,73.742 106.876,73.742C109.084,73.742 110.164,74.954 110.152,76.862C110.152,79.046 108.94,80.306 106.708,80.294C106.3,80.294 105.916,80.294 105.652,80.246L105.652,73.85Z" style="fill:rgb(58,137,136);fill-rule:nonzero;"/>
            </g>
        </g>
    </g>
</svg>
